# File created by Blade
# Date/Time:  Wed Jan 21 17:41:14 2015
# Frame Rate: 120.000 fps
#------------------------------------------------------
:FULLY-SPECIFIED
:DEGREES
315
root 6.050009 35.258098 -23.086833 -230.825959 89.638186 -287.476772
Spine 41.795340 3.325493 -3.790718
Head -20.676659 -2.302628 6.633386
LeftShoulder 1.466746 -52.902086 26.543106
LeftArm 58.466648 -4.565157 -7.609755
LeftForeArm 6.892109 -0.000000 -3.820046
LeftHand -3.254092 -0.000000 12.023694
LeftHandThumb1 -26.253704 0.000000 33.147579
RightShoulder 1.269440 12.679155 -22.595806
RightArm 55.947504 47.899802 14.812389
RightForeArm -32.383215 -0.000000 12.620555
RightHand -5.567124 -0.000000 -33.974073
RightHandThumb1 -24.326973 -0.000000 -32.862282
LeftUpLeg -65.174391 0.719573 -5.535818
LeftLeg -4.949628 -0.000000 0.000000
LeftFoot -0.962849 29.952101 -6.521761
LeftToeBase 21.496162 -0.000000 -0.000000
RightUpLeg -65.669922 0.180182 1.649851
RightLeg -4.406717 -0.000000 0.000000
RightFoot -1.756113 -27.330073 7.374914
RightToeBase 23.125029 -0.000000 -0.000000
316
root 6.029597 35.253447 -23.093881 -229.781221 89.624380 -287.117652
Spine 42.617297 3.294084 -3.653325
Head -21.433029 -2.139156 6.541950
LeftShoulder 1.645712 -53.079617 26.361556
LeftArm 58.351476 -4.621388 -7.493868
LeftForeArm 6.644721 -0.000000 -3.753373
LeftHand -3.191433 -0.000000 11.890514
LeftHandThumb1 -26.253704 0.000000 33.147579
RightShoulder 1.163704 12.892398 -22.692649
RightArm 56.127745 47.883276 15.165535
RightForeArm -32.653840 -0.000000 12.665458
RightHand -5.549403 -0.000000 -33.939534
RightHandThumb1 -24.326973 -0.000000 -32.862282
LeftUpLeg -65.828693 0.596232 -5.481227
LeftLeg -5.048382 -0.000000 0.000000
LeftFoot -0.833739 30.037419 -6.382534
LeftToeBase 21.460921 -0.000000 -0.000000
RightUpLeg -66.340881 0.142385 1.704192
RightLeg -4.496112 -0.000000 0.000000
RightFoot -1.697644 -27.230892 7.382550
RightToeBase 23.176646 -0.000000 -0.000000
317
root 6.016452 35.247725 -23.103162 -232.069719 89.666853 -290.041796
Spine 43.496660 3.351266 -3.419421
Head -22.251263 -2.261839 6.531665
LeftShoulder 1.805920 -53.159653 26.260394
LeftArm 58.212025 -4.582710 -7.238368
LeftForeArm 6.246245 -0.000000 -3.652135
LeftHand -3.265949 -0.000000 12.194929
LeftHandThumb1 -26.253704 0.000000 33.147579
RightShoulder 1.022870 12.991958 -22.784374
RightArm 56.252091 47.973790 15.419932
RightForeArm -32.728674 -0.000000 12.796669
RightHand -5.552868 -0.000000 -33.978238
RightHandThumb1 -24.326973 -0.000000 -32.862282
LeftUpLeg -66.460521 0.556314 -5.463371
LeftLeg -5.089839 -0.000000 0.000000
LeftFoot -0.813804 30.032109 -6.261965
LeftToeBase 21.513536 -0.000000 -0.000000
RightUpLeg -66.935531 0.146548 1.805682
RightLeg -4.615045 -0.000000 0.000000
RightFoot -1.624491 -27.124409 7.427989
RightToeBase 23.218184 -0.000000 -0.000000
318
root 6.001654 35.242959 -23.110360 -240.887725 89.655083 -299.567644
Spine 44.251074 3.468004 -3.269725
Head -22.946525 -2.314585 6.591503
LeftShoulder 2.110347 -53.098870 26.046126
LeftArm 58.217669 -5.013456 -7.307434
LeftForeArm 6.356293 -0.000000 -3.654224
LeftHand -3.234893 -0.000000 12.121496
LeftHandThumb1 -26.253704 0.000000 33.147579
RightShoulder 0.974106 13.197666 -22.734786
RightArm 55.566536 47.673853 14.665079
RightForeArm -32.228560 0.000000 13.046307
RightHand -5.648480 -0.000000 -34.128623
RightHandThumb1 -24.326973 -0.000000 -32.862282
LeftUpLeg -67.151381 0.506991 -5.487124
LeftLeg -5.150479 -0.000000 0.000000
LeftFoot -0.779922 30.042281 -6.202255
LeftToeBase 21.518490 -0.000000 -0.000000
RightUpLeg -67.645719 0.186528 1.769805
RightLeg -4.666915 -0.000000 0.000000
RightFoot -1.596739 -27.083707 7.477567
RightToeBase 23.261893 -0.000000 -0.000000
319
root 5.987902 35.238631 -23.117322 -257.827289 89.645967 -317.167703
Spine 45.060683 3.539371 -3.240040
Head -23.651596 -2.186653 6.693965
LeftShoulder 2.086104 -53.353167 26.251281
LeftArm 58.042966 -4.968391 -7.412443
LeftForeArm 6.423902 -0.000000 -3.576125
LeftHand -3.293457 -0.000000 12.218686
LeftHandThumb1 -26.253704 0.000000 33.147579
RightShoulder 1.038468 13.591055 -22.725930
RightArm 55.232759 47.458735 14.484569
RightForeArm -32.239477 -0.000000 13.214055
RightHand -5.693887 -0.000000 -34.307924
RightHandThumb1 -24.326973 -0.000000 -32.862282
LeftUpLeg -67.803384 0.528831 -5.528615
LeftLeg -5.191413 -0.000000 0.000000
LeftFoot -0.769166 30.004128 -6.076048
LeftToeBase 21.575044 -0.000000 -0.000000
RightUpLeg -68.323751 0.287128 1.714558
RightLeg -4.688925 -0.000000 0.000000
RightFoot -1.547789 -27.072791 7.563730
RightToeBase 23.234193 -0.000000 -0.000000
